<?xml version="1.0" encoding="iso-8859-1"?>
<!-- Generator: Adobe Illustrator 19.0.0, SVG Export Plug-In . SVG Version: 6.00 Build 0)  -->
<svg version="1.1" id="Capa_1" xmlns="http://www.w3.org/2000/svg" xmlns:xlink="http://www.w3.org/1999/xlink" x="0px" y="0px"
	 viewBox="0 0 512 512" style="enable-background:new 0 0 512 512;" xml:space="preserve">
<g>
	<g>
		<path d="M347,0c-53.365,0-101.592,25.441-132.065,66.071c-0.084,0.111-91.925,121.9-92.012,122.016l0.158,0.119
			c-9.103,12.104-79.042,105.1-90.158,119.881C11.385,336.806,0,371.01,0,407v90v15c5.64,0,309.616,0,323.474,0L512,199.17V165
			C512,74.019,437.981,0,347,0z M238.923,84.087C264.703,49.714,304.097,30,347,30c27.035,0,52.236,7.994,73.374,21.734
			l-73.892,98.018C320.282,132.231,288.815,122,255,122c-17.414,0-34.314,2.65-50.508,7.869L238.923,84.087z M151.6,200.198
			C177.339,169.475,214.612,152,255,152c27.043,0,52.25,7.999,73.392,21.747l-72.221,95.8C230.033,252.153,198.682,242,165,242
			c-17.531,0-34.541,2.685-50.834,7.974L151.6,200.198z M180,482h-30v-60h30V482z M300,482h-90v-90h-90v90H30v-75
			c0-29.381,9.33-57.455,26.914-80.901l0.024-0.032C82.718,291.707,122.105,272,165,272c74.439,0,135,60.561,135,135V482z
			 M279.554,288.367l72.045-95.568c8.174,8.38,15.27,17.814,21.062,28.08l-68.622,97.363
			C297.057,307.343,288.825,297.321,279.554,288.367z M390,343.489l-60,99.561V407c0-20.543-3.785-40.215-10.675-58.372
			l66.616-94.517C388.587,264.643,390,275.659,390,287V343.489z M369.821,168.627l73.762-97.845
			c6.933,7.105,13.091,14.967,18.335,23.454l-70.508,100.04C385.09,185.006,377.848,176.415,369.821,168.627z M482,190.83
			l-62,102.879V287c0-22.413-4.5-43.792-12.63-63.293l68.875-97.722C479.982,138.343,482,151.439,482,165V190.83z"/>
	</g>
</g>
<g>
</g>
<g>
</g>
<g>
</g>
<g>
</g>
<g>
</g>
<g>
</g>
<g>
</g>
<g>
</g>
<g>
</g>
<g>
</g>
<g>
</g>
<g>
</g>
<g>
</g>
<g>
</g>
<g>
</g>
</svg>
