<?xml version="1.0"?>
<svg xmlns="http://www.w3.org/2000/svg" xmlns:xlink="http://www.w3.org/1999/xlink" version="1.1" id="Capa_1" x="0px" y="0px" viewBox="0 0 512 512" style="enable-background:new 0 0 512 512;" xml:space="preserve" width="512px" height="512px" class=""><g><g>
	<g>
		<path d="M437,240H75c-41.353,0-75,33.647-75,75c0,41.353,33.647,75,75,75h362c41.353,0,75-33.647,75-75    C512,273.647,478.353,240,437,240z M75,330c-8.284,0-15-6.716-15-15c0-8.286,6.716-15,15-15s15,6.714,15,15    C90,323.284,83.284,330,75,330z M136,330c-8.284,0-15-6.716-15-15c0-8.286,6.716-15,15-15s15,6.714,15,15    C151,323.284,144.284,330,136,330z M196,330c-8.284,0-15-6.716-15-15c0-8.286,6.716-15,15-15s15,6.714,15,15    C211,323.284,204.284,330,196,330z M437,330H316c-8.291,0-15-6.709-15-15c0-8.291,6.709-15,15-15h121c8.291,0,15,6.709,15,15    C452,323.291,445.291,330,437,330z" data-original="#000000" class="active-path" data-old_color="#000000" fill="#00000026"/>
	</g>
</g><g>
	<g>
		<path d="M415.097,65.903C372.616,23.408,316.117,0,256,0S139.384,23.408,96.903,65.903c-5.859,5.86-5.859,15.352,0,21.211    s15.352,5.859,21.211,0C154.94,50.288,203.896,30,256,30s101.06,20.288,137.886,57.114c5.859,5.859,15.352,5.859,21.211,0    S420.956,71.762,415.097,65.903z" data-original="#000000" class="active-path" data-old_color="#000000" fill="#00000026"/>
	</g>
</g><g>
	<g>
		<path d="M372.675,108.325C341.518,77.168,300.077,60,256,60c-44.077,0-85.518,17.168-116.675,48.325    c-5.859,5.859-5.859,15.352,0,21.211c5.859,5.859,15.352,5.859,21.211,0C186.039,104.048,219.936,90,256,90    c36.064,0,69.961,14.048,95.464,39.536c5.859,5.86,15.351,5.86,21.211,0C378.534,123.677,378.534,114.184,372.675,108.325z" data-original="#000000" class="active-path" data-old_color="#000000" fill="#00000026"/>
	</g>
</g><g>
	<g>
		<path d="M330.209,150.791c-39.668-39.697-108.75-39.697-148.418,0c-5.859,5.859-5.859,15.366,0,21.211    c5.859,5.859,15.352,5.859,21.211,0c28.359-28.389,77.637-28.389,105.996,0c5.859,5.859,15.352,5.859,21.211,0    C336.068,166.157,336.068,156.65,330.209,150.791z" data-original="#000000" class="active-path" data-old_color="#000000" fill="#00000026"/>
	</g>
</g><g>
	<g>
		<path d="M287.802,193.198c-17.022-17.021-46.582-17.021-63.604,0c-5.859,5.859-5.859,15.352,0,21.211s15.352,5.859,21.211,0    c5.684-5.684,15.498-5.684,21.182,0c5.859,5.859,15.352,5.859,21.211,0S293.661,199.057,287.802,193.198z" data-original="#000000" class="active-path" data-old_color="#000000" fill="#00000026"/>
	</g>
</g><g>
	<g>
		<path d="M346,452h-45v-32h-90v32h-45c-24.853,0-45,20.147-45,45c0,8.284,6.716,15,15,15h240c8.284,0,15-6.716,15-15    C391,472.147,370.853,452,346,452z" data-original="#000000" class="active-path" data-old_color="#000000" fill="#00000026"/>
	</g>
</g></g> </svg>
