<?xml version="1.0" encoding="iso-8859-1"?>
<!-- Generator: Adobe Illustrator 21.0.0, SVG Export Plug-In . SVG Version: 6.00 Build 0)  -->
<svg xmlns="http://www.w3.org/2000/svg" xmlns:xlink="http://www.w3.org/1999/xlink" version="1.1" id="Capa_1" x="0px" y="0px" viewBox="0 0 512.834 512.834" style="enable-background:new 0 0 512.834 512.834;" xml:space="preserve" width="512" height="512">
<g id="XMLID_881_">
	<path id="XMLID_917_" d="M194.459,195.724c5.801-5.914,5.71-15.411-0.203-21.212s-15.41-5.71-21.213,0.203   c-45.05,45.921-44.341,119.933,1.58,164.983c2.92,2.865,6.713,4.292,10.504,4.292c3.887,0,7.771-1.502,10.709-4.495   c5.801-5.914,5.71-15.411-0.203-21.212C161.52,284.817,160.993,229.837,194.459,195.724z"/>
	<path id="XMLID_918_" d="M338.028,173.135c-5.912-5.801-15.41-5.709-21.213,0.203c-5.801,5.914-5.71,15.411,0.203,21.212   c34.113,33.467,34.64,88.446,1.174,122.56c-5.801,5.914-5.71,15.411,0.203,21.212c2.92,2.865,6.713,4.292,10.504,4.292   c3.887,0,7.771-1.502,10.709-4.496C384.658,292.198,383.949,218.186,338.028,173.135z"/>
	<path id="XMLID_921_" d="M512.834,256.417c0-0.824-0.084-1.627-0.212-2.415c-0.62-67.563-27.203-130.991-75.047-178.834   C389.162,26.754,324.793,0.092,256.326,0.092c-68.468,0-132.837,26.663-181.25,75.076C26.662,123.581,0,187.95,0,256.417   s26.662,132.836,75.076,181.25c48.413,48.413,112.782,75.076,181.25,75.076c68.467,0,132.836-26.663,181.249-75.076   c47.844-47.843,74.427-111.271,75.047-178.834C512.75,258.044,512.834,257.241,512.834,256.417z M256.326,246.417   c-7.736,0-14.03-6.294-14.03-14.03s6.294-14.03,14.03-14.03c7.735,0,14.029,6.294,14.029,14.03S264.062,246.417,256.326,246.417z    M271.326,273.783c16.915-6.148,29.029-22.383,29.029-41.396c0-24.278-19.751-44.03-44.029-44.03s-44.03,19.752-44.03,44.03   c0,19.013,12.115,35.248,29.03,41.396v134.535c-77.151-7.56-137.639-72.797-137.639-151.901s60.488-144.34,137.639-151.901v4.234   c0,8.284,6.716,15,15,15s15-6.716,15-15v-4.234c77.151,7.561,137.638,72.797,137.638,151.901s-60.487,144.34-137.638,151.901   V273.783z M271.326,482.233v-19.816c0-8.284-6.716-15-15-15s-15,6.716-15,15v19.816C128.457,474.81,37.932,384.285,30.509,271.417   h16.15c8.284,0,15-6.716,15-15s-6.716-15-15-15h-16.15c7.423-112.868,97.948-203.393,210.817-210.816v43.797   C147.61,82.054,73.688,160.761,73.688,256.417c0,100.707,81.932,182.638,182.639,182.638s182.638-81.931,182.638-182.638   c0-95.656-73.921-174.363-167.638-182.018V30.601c112.868,7.423,203.393,97.948,210.816,210.816h-15.967c-8.284,0-15,6.716-15,15   s6.716,15,15,15h15.967C474.719,384.285,384.194,474.81,271.326,482.233z"/>
</g>















</svg>
